<svg xmlns="http://www.w3.org/2000/svg" xmlns:xlink="http://www.w3.org/1999/xlink" width="421.81" height="248.531" viewBox="0 0 421.81 248.531"><defs><style>.a{fill:none;}.b{clip-path:url(#a);}.c{fill:url(#b);}</style><clipPath id="a"><path class="a" d="M897.175,1288.728l28.381-160.96h63.7l-28.382,160.96Zm-19.847.42,13.017-73.823h-63.7l-13.017,73.823Zm329.725-.42,28.382-160.96h-63.7l-28.382,160.96Zm-83.55.42,13.017-73.823h-63.7l-13.017,73.823Zm-99.1-248.531c-.037.21-.074.42-.094.614h-.015l-43.714,247.917h63.7l43.715-247.917h-.015c.049-.194.086-.4.123-.614l-63.812.614"/></clipPath><linearGradient id="b" x1="0.5" x2="0.5" y2="1" gradientUnits="objectBoundingBox"><stop offset="0" stop-color="#00bdf7"/><stop offset="1" stop-color="#296ce2"/></linearGradient></defs><g transform="translate(-813.625 -1040.617)"><g class="b"><rect class="c" width="1117.77" height="398.468" transform="translate(504.947 965.648)"/></g></g></svg>