<svg xmlns="http://www.w3.org/2000/svg" width="480" height="480" viewBox="0 0 480 480"><defs><style>.a{fill:#fff;}</style></defs><path class="a" d="M1005.236,883.914c-132.336,0-240,107.664-240,240a238.87,238.87,0,0,0,54.992,152.7c.088.12.1.272.192.384a239.935,239.935,0,0,0,90.624,67.624c.4.168.792.352,1.192.52,2.808,1.184,5.648,2.28,8.5,3.352,1.12.424,2.24.856,3.376,1.264q3.684,1.32,7.416,2.512c1.592.512,3.184,1.016,4.792,1.5q3.3.984,6.632,1.888c1.952.528,3.92,1.016,5.888,1.488,1.992.48,3.992.96,6,1.384,2.24.48,4.5.9,6.776,1.32,1.824.336,3.64.688,5.48.984,2.52.408,5.056.728,7.6,1.056,1.64.208,3.272.448,4.92.624,2.88.3,5.784.52,8.7.72,1.352.1,2.7.24,4.056.312q6.372.36,12.872.368c4.328,0,8.624-.128,12.888-.352,1.36-.072,2.7-.216,4.056-.312,2.912-.208,5.816-.416,8.7-.72,1.648-.176,3.28-.416,4.92-.624,2.544-.328,5.08-.648,7.6-1.056,1.832-.3,3.656-.648,5.48-.984,2.264-.416,4.528-.84,6.776-1.32,2.008-.432,4-.9,6-1.384,1.968-.48,3.936-.968,5.888-1.488,2.224-.592,4.432-1.232,6.632-1.888,1.608-.48,3.2-.984,4.792-1.5q3.732-1.2,7.416-2.512c1.128-.408,2.248-.84,3.376-1.264,2.856-1.072,5.688-2.176,8.5-3.352.4-.168.792-.352,1.192-.52a240,240,0,0,0,90.624-67.624c.1-.112.1-.272.192-.384a239.022,239.022,0,0,0,54.976-152.72C1245.236,991.578,1137.572,883.914,1005.236,883.914Zm97.256,441.76c-.12.056-.232.12-.352.176-2.856,1.376-5.76,2.672-8.688,3.936-.664.28-1.32.568-1.984.848q-3.84,1.608-7.76,3.064c-1.088.408-2.176.808-3.272,1.192-2.312.824-4.632,1.616-6.976,2.368-1.456.464-2.92.9-4.384,1.336-2.08.624-4.168,1.224-6.28,1.784-1.776.472-3.568.9-5.36,1.328-1.88.448-3.752.9-5.648,1.3-2.072.44-4.16.816-6.24,1.192-1.688.312-3.368.64-5.072.912-2.344.368-4.712.664-7.072.96-1.5.192-2.984.416-4.5.576-2.7.288-5.416.472-8.128.664-1.208.08-2.408.216-3.632.28q-5.94.312-11.912.32t-11.9-.32c-1.216-.064-2.416-.192-3.632-.28-2.72-.184-5.432-.376-8.128-.664-1.512-.16-3-.384-4.5-.576-2.36-.3-4.728-.592-7.072-.96-1.7-.272-3.384-.6-5.072-.912-2.088-.376-4.176-.76-6.24-1.192-1.9-.4-3.776-.856-5.648-1.3-1.792-.432-3.584-.856-5.36-1.328-2.1-.56-4.2-1.168-6.28-1.784-1.464-.432-2.928-.872-4.384-1.336q-3.516-1.128-6.976-2.368c-1.1-.392-2.184-.792-3.272-1.192q-3.912-1.464-7.76-3.064c-.664-.272-1.312-.56-1.976-.84-2.928-1.256-5.832-2.56-8.7-3.936-.12-.056-.232-.112-.352-.176a225.085,225.085,0,0,1-72.576-55.952,176.574,176.574,0,0,1,115.56-121.112c1.112.68,2.272,1.288,3.416,1.928.672.376,1.336.776,2.016,1.136,2.384,1.264,4.8,2.448,7.272,3.512,1.9.832,3.856,1.536,5.808,2.256.384.136.768.288,1.152.424a102.1,102.1,0,0,0,69.192,0c.384-.136.768-.288,1.152-.424,1.952-.72,3.912-1.424,5.808-2.256,2.472-1.064,4.888-2.248,7.272-3.512.68-.368,1.344-.76,2.016-1.136,1.144-.64,2.312-1.248,3.432-1.936a176.62,176.62,0,0,1,115.56,121.112A225.3,225.3,0,0,1,1102.492,1325.674Zm-185.256-265.76a88,88,0,1,1,135.872,73.736,84.738,84.738,0,0,1-9.8,5.48c-.4.192-.792.392-1.192.576a90.014,90.014,0,0,1-73.76,0c-.4-.184-.8-.384-1.192-.576a84.083,84.083,0,0,1-9.8-5.48A87.943,87.943,0,0,1,917.236,1059.914ZM1187.068,1254.5a192.759,192.759,0,0,0-112.376-117.392,104,104,0,1,0-138.9,0A192.779,192.779,0,0,0,823.412,1254.5a222.683,222.683,0,0,1-42.176-130.584c0-123.512,100.488-224,224-224s224,100.488,224,224A222.733,222.733,0,0,1,1187.068,1254.5Z" transform="translate(-765.236 -883.914)"/></svg>