<svg xmlns="http://www.w3.org/2000/svg" width="743.04" height="371.745" viewBox="0 0 743.04 371.745"><defs><style>.a,.b{fill:none;}.a,.b,.c{stroke:#fff;stroke-miterlimit:10;}.a{stroke-width:12px;}.b{stroke-width:13px;}.c{fill:#fff;stroke-width:4px;font-size:105px;font-family:StratumNo1-Regular, StratumNo1;}</style></defs><g transform="translate(-5768.846 -1011.546)"><path class="a" d="M6117.591,1189.175a166.216,166.216,0,0,1,114.755,115.449" transform="translate(68.906 34.53)"/><path class="a" d="M5947.054,1303.7a166.22,166.22,0,0,1,114.494-114.521" transform="translate(34.595 34.53)"/><circle class="a" cx="84.223" cy="84.223" r="84.223" transform="translate(6057.094 1068.393)"/><path class="a" d="M6288.129,1146.844a166.215,166.215,0,0,1,114.756,115.45" transform="translate(103.217 26.014)"/><path class="a" d="M6139.59,1207.676a166.12,166.12,0,0,1,88.069-60.831" transform="translate(73.332 26.014)"/><circle class="a" cx="84.223" cy="84.223" r="84.223" transform="translate(6261.943 1017.546)"/><path class="a" d="M5945.641,1146.844a166.132,166.132,0,0,1,88.4,61.281" transform="translate(34.311 26.014)"/><path class="b" d="M5775.1,1261.367A166.228,166.228,0,0,1,5889.6,1146.845" transform="translate(0 26.014)"/><circle class="a" cx="84.223" cy="84.223" r="84.223" transform="translate(5850.549 1017.546)"/><text class="c" transform="translate(5876.432 1303.109)"><tspan x="0" y="0">26</tspan></text><text class="c" transform="translate(6124.705 1358.291)"><tspan x="0" y="0">7</tspan></text><text class="c" transform="translate(6301.251 1303.109)"><tspan x="0" y="0">10</tspan></text></g></svg>